<svg width="22" height="27" viewBox="0 0 22 27" fill="none" xmlns="http://www.w3.org/2000/svg">
<path d="M11 13.3293C14.4719 13.3293 17.2872 10.419 17.2872 6.82935C17.2872 3.23972 14.4719 0.329346 11 0.329346C7.52812 0.329346 4.71281 3.23972 4.71281 6.82935C4.71281 10.419 7.52812 13.3293 11 13.3293ZM15.3986 14.9543H14.5798C13.4894 15.4719 12.2753 15.7668 11 15.7668C9.72469 15.7668 8.51606 15.4719 7.42019 14.9543H6.60138C2.95625 14.9543 0 18.011 0 21.7777V23.8918C0 25.2373 1.05531 26.3293 2.35812 26.3293H19.6419C20.9447 26.3293 22 25.2373 22 23.8918V21.7777C22 18.011 19.0438 14.9543 15.3986 14.9543Z" fill="white"/>
</svg>
