<svg width="32" height="23" viewBox="0 0 32 23" fill="none" xmlns="http://www.w3.org/2000/svg">
<path d="M3.7615 0.630852L16 2.08105L28.24 0.630852C28.575 0.589836 28.9 0.760735 29.055 1.05663L31.14 5.12792C31.585 6.00195 31.11 7.06152 30.145 7.33007L21.98 9.61034C21.285 9.80077 20.54 9.51757 20.17 8.86816L16 2.08105L11.83 8.86816C11.46 9.51757 10.715 9.80077 10.02 9.61034L1.8535 7.33007C0.8905 7.06152 0.41415 6.00195 0.862 5.12792L2.947 1.05663C3.0985 0.760735 3.425 0.589836 3.7615 0.630852ZM16.055 5.24999L18.795 9.71288C19.54 10.9238 21.025 11.456 22.42 11.1094L28.8 9.33202V17.4814C28.8 18.5557 28.05 19.4932 26.98 19.7568L16.775 22.2471C16.265 22.374 15.735 22.374 15.225 22.2471L5.02 19.7568C3.9495 19.4932 3.2 18.5557 3.2 17.4814V9.33202L9.58 11.1094C10.975 11.456 12.46 10.9238 13.205 9.71288L15.945 5.24999H16.055Z" fill="white"/>
</svg>
