<svg width="24" height="20" viewBox="0 0 24 20" fill="none" xmlns="http://www.w3.org/2000/svg">
<g clip-path="url(#clip0_3_215)">
<path d="M3.11663 8.32054C0.615083 13.6088 0.698468 13.3568 0.698468 13.8304C0.67269 15.1691 2.31872 16.259 4.35303 16.259C6.38733 16.259 8.03347 15.1697 8.03347 13.8577C8.03347 13.3683 8.073 13.592 5.58598 8.34786C5.08049 7.25196 3.62844 7.24589 3.11663 8.32054ZM2.28163 13.3447L4.3513 9.00054L6.42586 13.3447H2.28163ZM16.6279 4.43481C16.1212 3.36471 14.6703 3.36107 14.16 4.43481C11.6584 9.72304 11.7148 9.47108 11.7148 9.94465C11.7148 11.284 13.3609 12.3459 15.3952 12.3459C17.4295 12.3459 19.0498 11.257 19.0498 9.94465C19.0489 9.4559 19.115 9.68054 16.6279 4.43481ZM13.2982 9.45894L15.3696 5.11481L17.4422 9.45894H13.2982ZM14.9084 14.3161H10.7938V5.36981C11.3927 5.09304 11.8496 4.55229 12.0526 3.88929L15.6842 2.61094C16.1664 2.44113 16.4269 1.89087 16.2659 1.38208C16.1055 0.874205 15.5867 0.597044 15.1019 0.767955L11.8442 1.91425C11.4433 1.20115 10.7144 0.717865 9.87225 0.717865C8.60192 0.717865 7.59785 1.80526 7.59785 3.14645C7.59785 3.23633 7.61392 3.32164 7.6229 3.40898L4.06262 4.65338C3.57956 4.82338 3.31934 5.37285 3.48008 5.87981C3.60857 6.2869 3.96745 6.54403 4.35303 6.54403C4.44918 6.54403 4.54763 6.52829 4.6443 6.49412L8.54528 5.12088C8.67179 5.21803 8.78393 5.30303 8.95358 5.36981V15.7732C8.95358 16.0404 9.1606 16.259 9.41363 16.259H15.8285C16.0826 16.259 16.2886 16.0415 16.2886 15.8006C16.2886 14.9688 15.6963 14.3161 14.9084 14.3161Z" fill="#080C2F"/>
</g>
<defs>
<clipPath id="clip0_3_215">
<rect width="22.6697" height="19.1474" fill="white" transform="translate(0.666664 0.71579)"/>
</clipPath>
</defs>
</svg>
