<svg width="11" height="15" viewBox="0 0 11 15" fill="none" xmlns="http://www.w3.org/2000/svg">
<g clip-path="url(#clip0_3_217)">
<path d="M9.45601 3.35381V12.8944C9.45601 13.229 9.25508 13.5279 8.9538 13.642C8.86784 13.6743 8.78211 13.6892 8.694 13.6892C8.47226 13.6892 8.25633 13.5879 8.10845 13.403L1.83594 5.54988V12.8941C1.83594 13.3331 1.49518 13.6892 1.07393 13.6892C0.65268 13.6892 0.31192 13.3331 0.31192 12.8941V3.35356C0.31192 3.0189 0.512852 2.72001 0.814131 2.60597C1.11465 2.49377 1.45326 2.58734 1.65948 2.84471L7.932 10.6978V3.35356C7.932 2.91455 8.27276 2.55852 8.694 2.55852C9.11525 2.55852 9.45601 2.9148 9.45601 3.35381Z" fill="#080C2F"/>
</g>
<defs>
<clipPath id="clip0_3_217">
<rect width="9.7156" height="13.5158" fill="white" transform="translate(0.31192 0.96843)"/>
</clipPath>
</defs>
</svg>
