<svg width="22" height="26" viewBox="0 0 22 26" fill="none" xmlns="http://www.w3.org/2000/svg">
<path d="M11 13C14.4719 13 17.2872 10.0896 17.2872 6.5C17.2872 2.91037 14.4719 0 11 0C7.52812 0 4.71281 2.91037 4.71281 6.5C4.71281 10.0896 7.52812 13 11 13ZM15.3986 14.625H14.5798C13.4894 15.1426 12.2753 15.4375 11 15.4375C9.72469 15.4375 8.51606 15.1426 7.42019 14.625H6.60138C2.95625 14.625 0 17.6816 0 21.4484V23.5625C0 24.908 1.05531 26 2.35812 26H19.6419C20.9447 26 22 24.908 22 23.5625V21.4484C22 17.6816 19.0438 14.625 15.3986 14.625Z" fill="#080C2F"/>
</svg>
