<svg width="10" height="10" viewBox="0 0 10 10" fill="none" xmlns="http://www.w3.org/2000/svg">
<path d="M2.90528 0.366182C2.417 -0.122061 1.62403 -0.122061 1.13575 0.366182L0.366216 1.1363C-0.122065 1.62438 -0.122065 2.41657 0.366216 2.90485L1.31153 3.85017L3.85059 1.31149L2.90528 0.366182ZM1.75293 4.29157L6.30762 8.84431C6.51075 9.04743 6.7627 9.19782 7.03809 9.2779L9.38829 9.96931C9.55274 10.0181 9.73067 9.97321 9.85196 9.83454C9.97325 9.73103 10.0186 9.55329 9.9702 9.38728L9.27891 7.03767C9.19766 6.76228 9.04864 6.51032 8.84532 6.3072L4.292 1.75329L1.75293 4.29157Z" fill="white"/>
</svg>
