<svg width="22" height="22" viewBox="0 0 22 22" fill="none" xmlns="http://www.w3.org/2000/svg">
<path d="M17.8793 5.5043C17.5141 5.94258 16.8609 5.94258 16.457 5.5043C16.0574 5.13906 16.0574 4.48594 16.457 4.08332L20.2383 0.302027C20.6422 -0.100676 21.2953 -0.100676 21.6605 0.302027C22.0988 0.704688 22.0988 1.35781 21.6605 1.76043L17.8793 5.5043ZM14.0594 9.88711L12.6887 11.2191C13.9133 11.3738 15.1035 11.9023 16.0445 12.8391L16.977 13.8145L16.0445 14.7855C14.4332 16.3969 11.8207 16.3969 10.2094 14.7855L9.68516 14.2613L8.31445 15.632C9.50039 15.748 10.7293 16.2766 11.666 17.2176L12.6414 18.1887L11.666 19.1598C10.0547 20.7711 7.44648 20.7711 5.83516 19.1598L5.30664 18.6355L2.34738 21.5961C1.81027 22.1332 0.939727 22.1332 0.402703 21.5961C-0.134234 21.059 -0.134234 20.191 0.402703 19.6539L3.36402 16.6934L2.91672 16.2422C1.30582 14.6352 1.30582 12.0227 2.91672 10.4113L3.8891 9.43594L4.85977 10.4113C5.76211 11.3137 6.28633 12.448 6.43242 13.6254L7.73867 12.3148L7.2918 11.868C5.68047 10.2566 5.68047 7.64414 7.2918 6.03711L8.26289 5.06172L9.19961 6.03711C10.102 6.93516 10.6605 8.07383 10.8066 9.25117L12.1129 7.94063L11.666 7.49375C10.0547 5.88242 10.0547 3.27078 11.666 1.65988L12.6414 0.6875L13.6125 1.65988C13.8059 1.8541 13.982 2.05992 14.141 2.27434L16.1133 0.30207C16.5172 -0.100676 17.1703 -0.100676 17.5355 0.30207C17.9738 0.704688 17.9738 1.35781 17.5355 1.76043L15.0691 4.2625C15.2926 5.18633 15.2711 6.15313 15.009 7.06836C15.8812 6.81914 16.8051 6.75039 17.6902 6.97812L20.2383 4.42578C20.6422 4.02445 21.2953 4.02445 21.6605 4.42578C22.0988 4.82969 22.0988 5.48281 21.6605 5.84805L19.7141 7.87187C19.959 8.04375 20.1953 8.2457 20.4188 8.46484L21.3898 9.43594L20.4188 10.4113C18.8074 12.0227 16.1949 12.0227 14.5836 10.4113L14.0594 9.88711Z" fill="#080C2F"/>
</svg>
