<svg width="22" height="20" viewBox="0 0 22 20" fill="none" xmlns="http://www.w3.org/2000/svg">
<path d="M20.7066 10.6059C21.0934 10.9926 21.3125 11.5168 21.3125 12.0625C21.3125 12.6082 21.0934 13.1324 20.7066 13.5191C20.3199 13.9059 19.7957 14.125 19.25 14.125H2.75C2.20301 14.125 1.67836 13.9059 1.29164 13.5191C0.904922 13.1324 0.6875 12.6082 0.6875 12.0625C0.6875 11.5168 0.904922 10.9926 1.29164 10.6059C1.67836 10.2191 2.20301 10 2.75 10H19.25C19.7957 10 20.3199 10.2191 20.7066 10.6059ZM20.423 15.702C20.552 15.8309 20.625 16.007 20.625 16.1875V16.875C20.625 17.5668 20.3371 18.3059 19.8215 18.8215C19.3059 19.3371 18.5668 19.625 17.875 19.625H4.125C3.39582 19.625 2.69629 19.3371 2.18066 18.8215C1.66461 18.3059 1.375 17.5668 1.375 16.875V16.1875C1.375 16.007 1.44762 15.8309 1.57652 15.702C1.70543 15.573 1.88031 15.5 2.0625 15.5H19.9375C20.118 15.5 20.2941 15.573 20.423 15.702ZM2.1652 8.4875C1.97355 8.39297 1.80598 8.25977 1.67449 8.09219C1.54301 7.92461 1.45191 7.73125 1.40723 7.525C1.36254 7.31445 1.36641 7.09961 1.41754 6.89336C2.36242 3.16883 6.29492 0.375 11 0.375C15.7051 0.375 19.6367 3.16883 20.582 6.89336C20.6336 7.09961 20.6379 7.31445 20.5906 7.525C20.5477 7.73125 20.4574 7.92461 20.3242 8.09219C20.1566 8.25977 20.0277 8.39297 19.8344 8.4875C19.6453 8.57773 19.4348 8.625 19.2199 8.625H2.77879C2.56652 8.625 2.35641 8.57773 2.1652 8.4875ZM16.0145 4.01445C15.8855 4.14336 15.8125 4.31953 15.8125 4.5C15.8125 4.6375 15.8512 4.7707 15.9285 4.88242C16.0059 4.99414 16.0746 5.08438 16.2379 5.13594C16.3625 5.14883 16.5 5.20039 16.6332 5.17461C16.7664 5.14883 16.891 5.08438 16.9855 4.98555C17.0844 4.89102 17.1488 4.76641 17.1746 4.6332C17.2004 4.5 17.1488 4.3625 17.1359 4.23789C17.0844 4.07461 16.9941 4.00586 16.8824 3.92852C16.7707 3.85117 16.6375 3.77383 16.5 3.77383C16.3195 3.77383 16.1434 3.88555 16.0145 4.01445ZM10.5145 2.63902C10.3855 2.76793 10.3125 2.94281 10.3125 3.125C10.3125 3.26078 10.3512 3.3957 10.4285 3.50742C10.5059 3.61914 10.5746 3.70938 10.7379 3.76094C10.8625 3.77383 11 3.82539 11.1332 3.79961C11.2664 3.77383 11.391 3.70938 11.4855 3.61055C11.5844 3.51602 11.6488 3.39141 11.6746 3.25906C11.7004 3.12586 11.6488 2.9875 11.6359 2.86203C11.5844 2.73613 11.4941 2.62871 11.3824 2.55352C11.2707 2.47789 11.1375 2.39883 11 2.39883C10.8195 2.39883 10.6434 2.51012 10.5145 2.63902ZM5.01445 4.01445C4.88555 4.14336 4.8125 4.31953 4.8125 4.5C4.8125 4.6375 4.85117 4.7707 4.92852 4.88242C5.00586 4.99414 5.07461 5.08438 5.23789 5.13594C5.3625 5.14883 5.5 5.20039 5.6332 5.17461C5.76641 5.14883 5.89102 5.08438 5.98555 4.98555C6.08438 4.89102 6.14883 4.76641 6.17461 4.6332C6.20039 4.5 6.14883 4.3625 6.13594 4.23789C6.08438 4.07461 5.99414 4.00586 5.88242 3.92852C5.7707 3.85117 5.6375 3.77383 5.5 3.77383C5.31953 3.77383 5.14336 3.88555 5.01445 4.01445Z" fill="#080C2F"/>
</svg>
