<svg width="29" height="26" viewBox="0 0 29 26" fill="none" xmlns="http://www.w3.org/2000/svg">
<path d="M11.3421 24.4359V16.6341H17.6495V24.4359C17.6495 25.2952 18.3563 26 19.224 26H23.9521C24.8197 26 25.5266 25.2952 25.5266 24.4359V13.5106H28.2098C28.9344 13.5106 29.2807 12.6185 28.7264 12.1526L15.5537 0.398436C15.2623 0.141777 14.8858 0 14.4958 0C14.1058 0 13.7293 0.141777 13.4379 0.398436L0.265235 12.1526C-0.270229 12.6185 0.0571959 13.5106 0.781786 13.5106H3.46501V24.4359C3.46501 25.2952 4.17187 26 5.03949 26H9.76764C10.6353 26 11.3421 25.2952 11.3421 24.4359Z" fill="#080C2F"/>
</svg>
