<svg width="9" height="11" viewBox="0 0 9 11" fill="none" xmlns="http://www.w3.org/2000/svg">
<path d="M5.63677 4.81255H8.25005C8.56177 4.81255 8.84302 4.99087 8.93208 5.25728C9.06098 5.52583 8.97895 5.82876 8.74458 6.01783L2.74458 10.8303C2.47973 11.0409 2.09231 11.0581 1.80919 10.869C1.52583 10.6799 1.4227 10.3362 1.56075 10.0418L3.36333 6.18755H0.728954C0.437626 6.18755 0.157852 6.00923 0.0479538 5.74283C-0.0619447 5.47427 0.02101 5.17134 0.256219 4.98228L6.25552 0.170167C6.52036 -0.041196 6.90708 -0.0572878 7.19067 0.131409C7.47427 0.320171 7.57739 0.663277 7.43911 0.958472L5.63677 4.81255Z" fill="#080C2F"/>
</svg>
