<svg width="31" height="22" viewBox="0 0 31 22" fill="none" xmlns="http://www.w3.org/2000/svg">
<path d="M3.06909 0.0060351L15.3076 1.45623L27.5476 0.0060351C27.8826 -0.0349805 28.2076 0.135918 28.3626 0.431816L30.4476 4.5031C30.8926 5.37713 30.4176 6.4367 29.4526 6.70525L21.2876 8.98553C20.5926 9.17596 19.8476 8.89275 19.4776 8.24334L15.3076 1.45623L11.1376 8.24334C10.7676 8.89275 10.0226 9.17596 9.32759 8.98553L1.16109 6.70525C0.198095 6.4367 -0.278255 5.37713 0.169595 4.5031L2.25459 0.431816C2.40609 0.135918 2.73259 -0.0349805 3.06909 0.0060351ZM15.3626 4.62518L18.1026 9.08807C18.8476 10.299 20.3326 10.8312 21.7276 10.4846L28.1076 8.70721V16.8566C28.1076 17.9308 27.3576 18.8683 26.2876 19.132L16.0826 21.6222C15.5726 21.7492 15.0426 21.7492 14.5326 21.6222L4.32759 19.132C3.25709 18.8683 2.50759 17.9308 2.50759 16.8566V8.70721L8.88759 10.4846C10.2826 10.8312 11.7676 10.299 12.5126 9.08807L15.2526 4.62518H15.3626Z" fill="#080C2F"/>
</svg>
