<svg width="32" height="25" viewBox="0 0 32 25" fill="none" xmlns="http://www.w3.org/2000/svg">
<path d="M3.7615 1.63085L16 3.08105L28.24 1.63085C28.575 1.58984 28.9 1.76073 29.055 2.05663L31.14 6.12792C31.585 7.00195 31.11 8.06152 30.145 8.33007L21.98 10.6103C21.285 10.8008 20.54 10.5176 20.17 9.86816L16 3.08105L11.83 9.86816C11.46 10.5176 10.715 10.8008 10.02 10.6103L1.8535 8.33007C0.8905 8.06152 0.41415 7.00195 0.862 6.12792L2.947 2.05663C3.0985 1.76073 3.425 1.58984 3.7615 1.63085ZM16.055 6.24999L18.795 10.7129C19.54 11.9238 21.025 12.456 22.42 12.1094L28.8 10.332V18.4814C28.8 19.5557 28.05 20.4932 26.98 20.7568L16.775 23.2471C16.265 23.374 15.735 23.374 15.225 23.2471L5.02 20.7568C3.9495 20.4932 3.2 19.5557 3.2 18.4814V10.332L9.58 12.1094C10.975 12.456 12.46 11.9238 13.205 10.7129L15.945 6.24999H16.055Z" fill="#51A8FF"/>
</svg>
