<svg width="15" height="12" viewBox="0 0 15 12" fill="none" xmlns="http://www.w3.org/2000/svg">
<path d="M4.31281 2.0625C4.31281 2.78672 3.72452 3.375 3.00031 3.375C2.27538 3.375 1.68781 2.78672 1.68781 2.0625C1.68781 1.33758 2.27538 0.75 3.00031 0.75C3.72452 0.75 4.31281 1.33758 4.31281 2.0625ZM4.88468 4.60078C4.18859 5.21953 3.75031 6.12188 3.75031 7.125C3.75031 7.92891 4.01046 8.66719 4.50031 9.24609V9.75C4.50031 10.1648 4.16515 10.5 3.75031 10.5H2.25031C1.83616 10.5 1.50031 10.1648 1.50031 9.75V9.12188C0.61343 8.7 0.000305176 7.79766 0.000305176 6.75C0.000305176 5.29922 1.17546 4.125 2.62531 4.125H3.37531C3.91671 4.125 4.45812 4.30078 4.88468 4.60078ZM1.50031 5.75859C1.26687 6.02109 1.12531 6.37031 1.12531 6.75C1.12531 7.12969 1.26687 7.47891 1.50031 7.74141V5.75859ZM10.5003 9.75V9.24609C10.9691 8.66719 11.2503 7.92891 11.2503 7.125C11.2503 6.12188 10.812 5.21953 10.1159 4.60078C10.5425 4.30078 11.0628 4.125 11.6253 4.125H12.3753C13.8261 4.125 15.0003 5.29922 15.0003 6.75C15.0003 7.79766 14.3862 8.7 13.5003 9.12188V9.75C13.5003 10.1648 13.1651 10.5 12.7503 10.5H11.2503C10.8355 10.5 10.5003 10.1648 10.5003 9.75ZM13.5003 7.74141C13.7136 7.47891 13.8753 7.12969 13.8753 6.75C13.8753 6.37031 13.7136 6.02109 13.5003 5.75859V7.74141ZM13.3128 2.0625C13.3128 2.78672 12.7245 3.375 12.0003 3.375C11.2761 3.375 10.6878 2.78672 10.6878 2.0625C10.6878 1.33758 11.2761 0.75 12.0003 0.75C12.7245 0.75 13.3128 1.33758 13.3128 2.0625ZM6.00031 2.25C6.00031 1.42148 6.67296 0.75 7.50031 0.75C8.32765 0.75 9.00031 1.42148 9.00031 2.25C9.00031 3.07734 8.32765 3.75 7.50031 3.75C6.67296 3.75 6.00031 3.07734 6.00031 2.25ZM10.5003 7.125C10.5003 8.17266 9.88624 9.075 9.00031 9.49688V10.5C9.00031 10.9148 8.66515 11.25 8.25031 11.25H6.75031C6.33546 11.25 6.00031 10.9148 6.00031 10.5V9.49688C5.11437 9.075 4.50031 8.17266 4.50031 7.125C4.50031 5.67422 5.67452 4.5 7.12531 4.5H7.87531C9.32609 4.5 10.5003 5.67422 10.5003 7.125ZM6.00031 8.11641V6.13359C5.76593 6.39609 5.62531 6.74531 5.62531 7.125C5.62531 7.50469 5.76593 7.85391 6.00031 8.11641ZM9.00031 6.13359V8.11641C9.21359 7.85156 9.37531 7.50469 9.37531 7.125C9.37531 6.74531 9.21359 6.39609 9.00031 6.13359Z" fill="#080C2F"/>
</svg>
