<svg width="21" height="21" viewBox="0 0 21 21" fill="none" xmlns="http://www.w3.org/2000/svg">
<path d="M21 6.92754C21 6.99998 20.9991 7.06691 20.9969 7.13935C20.3033 6.76479 19.5404 6.57497 18.7837 6.57497C15.3937 6.57497 14.4565 9.6171 14.4565 10.898C14.4565 12.0071 14.8635 13.1305 15.6718 14.0255C14.8712 14.2974 14.0316 14.4355 13.1855 14.4355L9.60972 14.4357L7.9449 16.0964C7.69454 16.3467 7.579 16.671 7.579 17.0057C7.579 17.5791 7.87611 17.7071 7.87611 18.5245C7.87914 19.909 6.75121 21 5.4018 21C4.76072 21 4.1258 20.7517 3.64961 20.2699C3.17588 19.7999 2.95973 19.1908 2.95973 18.5776C2.95973 18.3747 2.98331 18.1714 3.02925 17.9726C2.83065 18.0182 2.62758 18.0416 2.4255 18.0416C0.696689 18.0416 0.000244141 16.5388 0.000244141 15.6012C0.000244141 14.23 1.11382 13.1263 2.47718 13.1263C3.25524 13.1263 3.41931 13.4224 3.99312 13.4224C4.32776 13.4224 4.65101 13.3071 4.9012 13.0568L6.5652 11.3969L6.56664 7.83809C6.56664 5.25 7.70646 3.44942 9.1576 1.99747C10.5164 0.641489 12.2908 -0.036499 14.0672 -0.036499C15.8436 -0.036499 17.6269 0.641489 18.9849 1.99747C20.3397 3.38379 21 5.15567 21 6.92754Z" fill="#080C2F"/>
</svg>
