<svg width="18" height="19" viewBox="0 0 18 19" fill="none" xmlns="http://www.w3.org/2000/svg">
<path d="M13.881 1.999L16.0312 4.099L10.5 8.5L9.501 7.501L13.869 1.999H13.881V1.999ZM13.881 0.000999977C13.5857 -0.00108944 13.2935 0.0621773 13.0255 0.186266C12.7575 0.310355 12.5202 0.492193 12.3307 0.71875L6.7995 7.65025L10.3395 11.1895L17.2792 5.6695C17.493 5.48958 17.6671 5.26729 17.7906 5.01668C17.914 4.76606 17.9842 4.49256 17.9966 4.21345C18.009 3.93434 17.9634 3.6557 17.8626 3.39511C17.7619 3.13453 17.6082 2.89767 17.4113 2.6995L15.2985 0.58975C15.113 0.402649 14.8921 0.254258 14.6488 0.153191C14.4055 0.0521234 14.1445 0.000392354 13.881 0.000999977V0.000999977ZM6.09975 8.35975L5.391 9.0715C5.001 9.4615 5.001 10.0915 5.391 10.501L7.5 12.5988C7.71075 12.8013 7.95975 12.889 8.22 12.889C8.48175 12.889 8.73 12.8005 8.9295 12.5988L9.63 11.9013L6.09975 8.359V8.35975ZM3 13C2.4495 13 2.001 13.4515 2.001 13.999C2.001 14.5495 2.4495 15.001 3 15.001C3.5505 15.001 3.999 14.5495 3.999 13.999C3.999 13.4515 3.5505 13 3 13ZM6 13.999C5.4495 13.999 5.001 14.4505 5.001 15.001C5.001 15.5485 5.4495 16 6 16C6.5505 16 6.999 15.5485 6.999 15.001C6.999 14.4505 6.5505 13.999 6 13.999ZM0.999 16C0.4515 16 0 16.4515 0 16.999C0.000786292 17.264 0.106195 17.5179 0.293288 17.7056C0.480382 17.8933 0.734017 17.9994 0.999 18.001C1.2645 18.0002 1.51891 17.8944 1.70665 17.7066C1.89439 17.5189 2.00021 17.2645 2.001 16.999C1.99942 16.734 1.89325 16.4804 1.70559 16.2933C1.51794 16.1062 1.26399 16.0008 0.999 16V16ZM3.999 16.999C3.73402 17.0006 3.48038 17.1068 3.29329 17.2944C3.1062 17.4821 3.00079 17.736 3 18.001C3 18.5485 3.4515 19 3.999 19C4.26399 18.9992 4.51794 18.8938 4.70559 18.7067C4.89325 18.5196 4.99942 18.266 5.001 18.001C5.00021 17.7355 4.89439 17.4811 4.70665 17.2934C4.51891 17.1056 4.2645 16.9998 3.999 16.999V16.999Z" fill="#080C2F"/>
</svg>
