<svg width="32" height="32" viewBox="0 0 32 32" fill="none" xmlns="http://www.w3.org/2000/svg">
<path d="M10.668 17.332C8.18803 17.332 6.12103 19.039 5.52003 21.332H2.66803V24H5.52003C6.12103 26.293 8.18803 28 10.668 28C13.148 28 15.215 26.293 15.813 24H29.332V21.332H15.812C15.215 19.039 13.148 17.332 10.668 17.332V17.332ZM10.668 25.332C9.96153 25.3307 9.28428 25.0497 8.78434 24.5505C8.28439 24.0513 8.00241 23.3745 8.00003 22.668C8.00003 21.199 9.20003 20 10.668 20C12.133 20 13.332 21.2 13.332 22.668C13.332 24.133 12.132 25.332 10.668 25.332V25.332ZM26.48 8C25.879 5.707 23.812 4 21.332 4C18.852 4 16.785 5.707 16.187 8H2.66803V10.668H16.188C16.785 12.961 18.852 14.668 21.332 14.668C23.812 14.668 25.879 12.961 26.48 10.668H29.332V8H26.48ZM21.332 12C20.6255 11.9976 19.9487 11.7156 19.4495 11.2157C18.9503 10.7157 18.6693 10.0385 18.668 9.332C18.668 7.867 19.868 6.668 21.332 6.668C22.801 6.668 24 7.868 24 9.332C24 10.801 22.8 12 21.332 12Z" fill="#080C2F"/>
</svg>
