<svg width="22" height="23" viewBox="0 0 22 23" fill="none" xmlns="http://www.w3.org/2000/svg">
<path d="M12.375 11.5C12.375 12.2951 11.7605 12.9375 11 12.9375C10.2395 12.9375 9.625 12.2951 9.625 11.5C9.625 10.7049 10.2395 10.0625 11 10.0625C11.7605 10.0625 12.375 10.7049 12.375 11.5ZM4.8125 11.5C4.8125 7.92871 7.58398 5.03125 11 5.03125C14.416 5.03125 17.1875 7.92871 17.1875 11.5C17.1875 15.0713 14.416 17.9688 11 17.9688C7.58398 17.9688 4.8125 15.0713 4.8125 11.5ZM11 15.0938C12.8992 15.0938 14.4375 13.4855 14.4375 11.5C14.4375 9.51445 12.8992 7.90625 11 7.90625C9.10078 7.90625 7.5625 9.51445 7.5625 11.5C7.5625 13.4855 9.10078 15.0938 11 15.0938ZM22 11.5C22 17.852 17.0758 23 11 23C4.92422 23 0 17.852 0 11.5C0 5.14805 4.92422 0 11 0C17.0758 0 22 5.14805 22 11.5ZM11 2.875C6.40664 2.875 2.75 6.69785 2.75 11.5C2.75 16.2617 6.40664 20.125 11 20.125C15.5547 20.125 19.25 16.2617 19.25 11.5C19.25 6.69785 15.5547 2.875 11 2.875Z" fill="white"/>
</svg>
