<svg width="14" height="14" viewBox="0 0 14 14" fill="none" xmlns="http://www.w3.org/2000/svg">
<g clip-path="url(#clip0_3_219)">
<path d="M9.06575 0.657883H5.82722V1.7842H9.06575V0.657883ZM6.90673 7.97894H7.98624V4.59999H6.90673V7.97894ZM11.241 4.25646L12.0074 3.45678C11.7753 3.16957 11.5216 2.89925 11.2464 2.66272L10.4799 3.46241C9.64329 2.76409 8.59076 2.34736 7.44648 2.34736C4.7639 2.34736 2.58868 4.61688 2.58868 7.41578C2.58868 10.2147 4.7585 12.4842 7.44648 12.4842C10.1345 12.4842 12.3043 10.2147 12.3043 7.41578C12.3043 6.22188 11.9049 5.12372 11.241 4.25646ZM7.44648 11.3579C5.35763 11.3579 3.66819 9.5952 3.66819 7.41578C3.66819 5.23636 5.35763 3.47367 7.44648 3.47367C9.53534 3.47367 11.2248 5.23636 11.2248 7.41578C11.2248 9.5952 9.53534 11.3579 7.44648 11.3579Z" fill="#080C2F"/>
</g>
<defs>
<clipPath id="clip0_3_219">
<rect width="12.9541" height="13.5158" fill="white" transform="translate(0.969421 0.0947266)"/>
</clipPath>
</defs>
</svg>
