<svg width="14" height="12" viewBox="0 0 14 12" fill="none" xmlns="http://www.w3.org/2000/svg">
<path d="M14 3.57419C14 6.99969 12.0846 9.87614 9.20663 10.8082C8.65866 11.0208 8.06283 11.1419 7.43775 11.1419C5.66314 11.1419 4.01431 10.1641 3.18032 8.61173C1.7002 9.94899 1.30152 11.4775 1.29469 11.5069C1.22277 11.8018 0.953436 12 0.656756 12C0.606334 12 0.554845 11.9941 0.503576 11.9824C0.151113 11.8995 -0.06627 11.5518 0.0182225 11.2068C0.280669 10.1489 2.49202 5.14322 9.18661 5.14322C9.42811 5.14365 9.62499 4.95082 9.62499 4.71513C9.62499 4.47944 9.42811 4.28661 9.18749 4.28661C6.25076 4.28661 4.12888 5.21329 2.63289 6.31137C2.63818 6.02159 2.66686 5.72644 2.72956 5.42621C3.09788 3.66364 4.53534 2.23908 6.32254 1.83198C7.09719 1.65623 7.84504 1.67094 8.53547 1.83184C10.0667 2.18858 11.7675 1.63332 12.6179 0.19167C12.7728 -0.0715493 13.1653 -0.0631931 13.2922 0.213852C13.7457 1.20018 14 2.40915 14 3.57419Z" fill="#40B547"/>
</svg>
