<svg width="23" height="15" viewBox="0 0 23 15" fill="none" xmlns="http://www.w3.org/2000/svg">
<path d="M4.74997 8.62388H1.37497V5.24887H4.74997V8.62388ZM9.24885 5.24887H5.87385V8.62388H9.24885V5.24887ZM7.0011 0.75H3.6261V4.125H7.0011V0.75ZM18.25 7.5C14.0312 7.5 11.8164 8.90737 10.3761 9.75112H0.251099C0.250988 10.342 0.367279 10.927 0.593329 11.4729C0.81938 12.0188 1.15076 12.5148 1.56854 12.9326C1.98632 13.3503 2.48232 13.6817 3.0282 13.9078C3.57408 14.1338 4.15914 14.2501 4.74997 14.25H5.87385C6.96248 14.2543 8.01383 13.8537 8.8236 13.1261C10.4419 11.7517 12.2644 10.5814 14.367 10.1561C15.5609 9.91988 16.8789 9.75112 18.25 9.75112H22.7488V7.5H18.25Z" fill="#080C2F"/>
</svg>
